<?xml version="1.0" encoding="UTF-8" standalone="no"?>
<!DOCTYPE svg PUBLIC "-//W3C//DTD SVG 1.1//EN" "http://www.w3.org/Graphics/SVG/1.1/DTD/svg11.dtd">
<svg width="100%" height="100%" viewBox="0 0 32 32" version="1.1" xmlns="http://www.w3.org/2000/svg" xmlns:xlink="http://www.w3.org/1999/xlink" xml:space="preserve" xmlns:serif="http://www.serif.com/" style="fill-rule:evenodd;clip-rule:evenodd;stroke-linejoin:round;stroke-miterlimit:2;">
    <g transform="matrix(1,0,0,1,-10,-94)">
        <g id="Design-Here" serif:id="Design Here">
        </g>
        <path d="M11,103L11,121C11,121.425 11.268,121.803 11.669,121.944C12.07,122.084 12.516,121.956 12.781,121.625L17.281,116C17.281,116 36,116 36,116C38.76,116 41,113.76 41,111L41,103C41,100.24 38.76,98 36,98L16,98C13.24,98 11,100.24 11,103ZM13,103C13,101.344 14.344,100 16,100C16,100 36,100 36,100C37.656,100 39,101.344 39,103C39,103 39,111 39,111C39,112.656 37.656,114 36,114L16.8,114C16.496,114 16.209,114.138 16.019,114.375L13,118.149L13,103ZM18,104C16.344,104 15,105.344 15,107C15,108.656 16.344,110 18,110C19.656,110 21,108.656 21,107C21,105.344 19.656,104 18,104ZM26,104C24.344,104 23,105.344 23,107C23,108.656 24.344,110 26,110C27.656,110 29,108.656 29,107C29,105.344 27.656,104 26,104ZM34,104C32.344,104 31,105.344 31,107C31,108.656 32.344,110 34,110C35.656,110 37,108.656 37,107C37,105.344 35.656,104 34,104ZM18,106C18.552,106 19,106.448 19,107C19,107.552 18.552,108 18,108C17.448,108 17,107.552 17,107C17,106.448 17.448,106 18,106ZM26,106C26.552,106 27,106.448 27,107C27,107.552 26.552,108 26,108C25.448,108 25,107.552 25,107C25,106.448 25.448,106 26,106ZM34,106C34.552,106 35,106.448 35,107C35,107.552 34.552,108 34,108C33.448,108 33,107.552 33,107C33,106.448 33.448,106 34,106Z"/>
    </g>
</svg>
