<?xml version="1.0" encoding="UTF-8" standalone="no"?>
<!DOCTYPE svg PUBLIC "-//W3C//DTD SVG 1.1//EN" "http://www.w3.org/Graphics/SVG/1.1/DTD/svg11.dtd">
<svg width="100%" height="100%" viewBox="0 0 32 32" version="1.1" xmlns="http://www.w3.org/2000/svg" xmlns:xlink="http://www.w3.org/1999/xlink" xml:space="preserve" xmlns:serif="http://www.serif.com/" style="fill-rule:evenodd;clip-rule:evenodd;stroke-linejoin:round;stroke-miterlimit:2;">
    <g transform="matrix(1,0,0,1,-52,-94)">
        <g id="Design-Here" serif:id="Design Here">
        </g>
        <path d="M54.293,116.293L54.278,116.308C54.153,116.438 54.071,116.593 54.03,116.757L54.025,116.779L54.023,116.786C54.018,116.81 54.014,116.834 54.01,116.859L53.01,123.859C52.966,124.17 53.07,124.485 53.293,124.707C53.515,124.93 53.83,125.034 54.141,124.99L61.141,123.99C61.166,123.986 61.19,123.982 61.214,123.977L61.243,123.97C61.407,123.929 61.562,123.847 61.692,123.722L61.707,123.707C61.707,123.707 82.707,102.707 82.707,102.707C83.098,102.317 83.098,101.683 82.707,101.293L76.707,95.293C76.317,94.902 75.683,94.902 75.293,95.293L54.293,116.293ZM55.179,122.821L58.879,122.293L55.707,119.121L55.179,122.821ZM59.408,119.994L61,121.586L77.586,105L75.994,103.408L59.408,119.994ZM56.414,117L57.994,118.58L74.58,101.994L73,100.414L56.414,117ZM74.414,99L76.608,101.193C76.642,101.22 76.675,101.249 76.707,101.281C76.739,101.312 76.768,101.346 76.794,101.38L79,103.586L80.586,102L76,97.414L74.414,99Z"/>
    </g>
</svg>
