<?xml version="1.0" encoding="utf-8"?>
<!-- Generator: Adobe Illustrator 25.2.0, SVG Export Plug-In . SVG Version: 6.00 Build 0)  -->
<svg version="1.1" id="Layer_1" xmlns="http://www.w3.org/2000/svg" xmlns:xlink="http://www.w3.org/1999/xlink" x="0px" y="0px"
	 viewBox="0 0 2048 2048" style="enable-background:new 0 0 2048 2048;" xml:space="preserve">
<style type="text/css">
	.st0{fill:#212121;}
</style>
<g>
	<g id="path4465">
		<path class="st0" d="M1372.8,1792H675.2c-75.1,0-136.3-61.1-136.3-136.3V392.3c0-75.1,61.1-136.3,136.3-136.3h697.6
			c75.1,0,136.3,61.1,136.3,136.3v1263.5C1509.1,1730.9,1447.9,1792,1372.8,1792z M675.2,304c-48.7,0-88.3,39.6-88.3,88.3v1263.5
			c0,48.7,39.6,88.3,88.3,88.3h697.6c48.7,0,88.3-39.6,88.3-88.3V392.3c0-48.7-39.6-88.3-88.3-88.3H675.2z"/>
	</g>
	<g id="path4469">
		<path class="st0" d="M1240,400H954c-13.3,0-24-10.7-24-24s10.7-24,24-24h286c13.3,0,24,10.7,24,24S1253.3,400,1240,400z"/>
	</g>
	<g id="path4473">
		<path class="st0" d="M811,400c-33.1-0.8-30.6-50.3,2.4-47.9C843.1,355,840.9,400,811,400z"/>
	</g>
	<g>
		<path class="st0" d="M1485.1,1648H562.9c-13.3,0-24-10.7-24-24s10.7-24,24-24h922.1c13.3,0,24,10.7,24,24S1498.3,1648,1485.1,1648
			z"/>
	</g>
	<g>
		<path class="st0" d="M1485.1,496H562.9c-13.3,0-24-10.7-24-24s10.7-24,24-24h922.1c13.3,0,24,10.7,24,24S1498.3,496,1485.1,496z"
			/>
	</g>
	<g>
		<g>
			<g>
				<path class="st0" d="M1373.7,1045H674.3c-13.3,0-24-10.7-24-24v-60.7c0-24.4,19.9-44.3,44.3-44.3h24.9
					c5.8-18.8,13.4-37,22.6-54.4l-17.5-17.5c-8.4-8.3-13-19.5-13-31.3c0-11.8,4.6-22.9,13-31.3l70.7-70.7
					c17.3-17.3,45.4-17.3,62.6,0l17.6,17.6c17.4-9.2,35.6-16.7,54.4-22.5v-24.7c0-24.4,19.9-44.3,44.3-44.3h100
					c24.4,0,44.3,19.9,44.3,44.3v24.9c18.8,5.8,37,13.4,54.4,22.6l17.4-17.4c17.3-17.3,45.4-17.3,62.6,0l70.7,70.7
					c17.3,17.3,17.3,45.4,0,62.6l-17.6,17.6c9.2,17.4,16.7,35.6,22.5,54.4h24.7c24.4,0,44.3,19.9,44.3,44.3v60.1
					C1397.7,1034.3,1386.9,1045,1373.7,1045z M698.3,997h651.3v-32.3h-39.2c-11.1,0-20.7-7.6-23.3-18.3c-6.5-26.7-17-52.2-31.3-75.8
					c-5.7-9.5-4.3-21.6,3.6-29.4l27.8-27.8l-65.5-65.5l-27.7,27.7c-7.8,7.8-20,9.3-29.4,3.5c-23.5-14.3-49-24.9-75.7-31.4
					c-10.7-2.6-18.3-12.3-18.3-23.3V685H978v39.2c0,11.1-7.6,20.7-18.3,23.3c-26.7,6.5-52.2,17-75.8,31.3
					c-9.5,5.7-21.6,4.3-29.4-3.6l-27.8-27.8l-65.5,65.5l27.7,27.7c7.8,7.8,9.3,20,3.5,29.4c-14.3,23.5-24.9,49-31.4,75.7
					c-2.6,10.7-12.3,18.3-23.3,18.3h-39.4L698.3,997L698.3,997z"/>
			</g>
			<g>
				<path class="st0" d="M1235.8,1045H812.2c-12.8,0-23.3-10-24-22.8c-0.2-3.7-0.3-7.6-0.3-11.5c0-63,24.5-122.3,69.1-166.9
					S961,774.6,1024,774.6c63,0,122.3,24.5,166.9,69.1c44.6,44.6,69.1,103.8,69.1,166.9c0,3.9-0.1,7.8-0.3,11.5
					C1259.1,1035,1248.6,1045,1235.8,1045z M836.5,997h375.1c-7-97.3-88.4-174.4-187.5-174.4C924.9,822.6,843.5,899.7,836.5,997z"/>
			</g>
		</g>
		<g>
			<path class="st0" d="M811,1480c-94.3,0-171-76.7-171-171s76.7-171,171-171s171,76.7,171,171S905.3,1480,811,1480z M811,1186
				c-67.8,0-123,55.2-123,123s55.2,123,123,123s123-55.2,123-123S878.8,1186,811,1186z"/>
		</g>
		<g>
			<path class="st0" d="M790,1375c-6.1,0-12.3-2.3-17-7l-42-42c-9.4-9.4-9.4-24.6,0-33.9s24.6-9.4,33.9,0l25,25l67-67
				c9.4-9.4,24.6-9.4,33.9,0s9.4,24.6,0,33.9l-84,84C802.3,1372.7,796.1,1375,790,1375z"/>
		</g>
		<g>
			<path class="st0" d="M1237,1480c-94.3,0-171-76.7-171-171s76.7-171,171-171s171,76.7,171,171S1331.3,1480,1237,1480z M1237,1186
				c-67.8,0-123,55.2-123,123s55.2,123,123,123s123-55.2,123-123S1304.8,1186,1237,1186z"/>
		</g>
		<g>
			<path class="st0" d="M1192.5,1377.5c-6.1,0-12.3-2.3-17-7c-9.4-9.4-9.4-24.6,0-33.9l89.1-89.1c9.4-9.4,24.6-9.4,33.9,0
				c9.4,9.4,9.4,24.6,0,33.9l-89.1,89.1C1204.7,1375.2,1198.6,1377.5,1192.5,1377.5z"/>
		</g>
		<g>
			<path class="st0" d="M1281.5,1377.5c-6.1,0-12.3-2.3-17-7l-89.1-89.1c-9.4-9.4-9.4-24.6,0-33.9c9.4-9.4,24.6-9.4,33.9,0
				l89.1,89.1c9.4,9.4,9.4,24.6,0,33.9C1293.8,1375.2,1287.7,1377.5,1281.5,1377.5z"/>
		</g>
	</g>
</g>
</svg>
