<?xml version="1.0" encoding="UTF-8" standalone="no"?>
<!DOCTYPE svg PUBLIC "-//W3C//DTD SVG 1.1//EN" "http://www.w3.org/Graphics/SVG/1.1/DTD/svg11.dtd">
<svg width="100%" height="100%" viewBox="0 0 32 32" version="1.1" xmlns="http://www.w3.org/2000/svg" xmlns:xlink="http://www.w3.org/1999/xlink" xml:space="preserve" xmlns:serif="http://www.serif.com/" style="fill-rule:evenodd;clip-rule:evenodd;stroke-linejoin:round;stroke-miterlimit:2;">
    <g transform="matrix(1,0,0,1,-10,-178)">
        <g id="Design-Here" serif:id="Design Here">
        </g>
        <path d="M22,201L22,205L21,205C20.448,205 20,205.448 20,206C20,206.552 20.448,207 21,207L31,207C31.552,207 32,206.552 32,206C32,205.448 31.552,205 31,205L30,205L30,201L40,201C40.552,201 41,200.552 41,200L41,182C41,181.448 40.552,181 40,181L12,181C11.448,181 11,181.448 11,182L11,200C11,200.552 11.448,201 12,201L22,201ZM28,201L28,205C28,205 24,205 24,205C24,205 24,201 24,201L28,201ZM39,197L13,197L13,199L22.999,199L23,199L29,199L29.002,199L39,199L39,197ZM13,195L13,183L39,183L39,195L13,195Z"/>
    </g>
</svg>
