<?xml version="1.0" encoding="UTF-8" standalone="no"?>
<!DOCTYPE svg PUBLIC "-//W3C//DTD SVG 1.1//EN" "http://www.w3.org/Graphics/SVG/1.1/DTD/svg11.dtd">
<svg width="100%" height="100%" viewBox="0 0 32 32" version="1.1" xmlns="http://www.w3.org/2000/svg" xmlns:xlink="http://www.w3.org/1999/xlink" xml:space="preserve" xmlns:serif="http://www.serif.com/" style="fill-rule:evenodd;clip-rule:evenodd;stroke-linejoin:round;stroke-miterlimit:2;">
    <g transform="matrix(1,0,0,1,-52,-178)">
        <g id="Design-Here" serif:id="Design Here">
        </g>
        <path d="M55.974,209L56,209L80,209C80.552,209 81,208.552 81,208L81,180C81,179.448 80.552,179 80,179L56,179L55.974,179L55.949,179.001L55.923,179.003L55.898,179.005L55.873,179.008L55.848,179.012L55.823,179.016L55.798,179.02L55.774,179.026L55.75,179.031L55.726,179.038L55.703,179.045L55.679,179.053L55.656,179.061L55.633,179.069L55.611,179.079L55.588,179.088L55.566,179.099L55.545,179.109L55.523,179.121L55.502,179.132L55.481,179.145L55.461,179.158L55.441,179.171L55.421,179.184L55.402,179.199L55.383,179.213L55.364,179.228L55.346,179.244L55.328,179.26L55.31,179.276L55.293,179.293L55.276,179.31L55.26,179.328L55.244,179.346L55.228,179.364L55.213,179.383L55.199,179.402L55.182,179.425L55.169,179.444L55.156,179.464L55.143,179.484L55.131,179.505L55.119,179.526L55.108,179.547L55.098,179.569L55.087,179.59L55.078,179.613L55.069,179.635L55.06,179.658L55.052,179.681L55.045,179.704L55.038,179.728L55.031,179.752L55.025,179.776L55.02,179.8L55.015,179.825L55.011,179.85L55.008,179.876L55.005,179.902L55.003,179.928L55.001,179.949L55,179.974L55,179.987C55,179.991 55,179.996 55,180L55,208L55,208.026L55.001,208.051L55.003,208.077L55.005,208.102L55.008,208.127L55.012,208.152L55.016,208.177L55.02,208.202L55.026,208.226L55.031,208.25L55.038,208.274L55.045,208.297L55.053,208.321L55.061,208.344L55.069,208.367L55.079,208.389L55.088,208.412L55.099,208.434L55.109,208.455L55.121,208.477L55.132,208.498L55.145,208.519L55.158,208.539L55.171,208.559L55.184,208.579L55.199,208.598L55.213,208.617L55.228,208.636L55.244,208.654L55.26,208.672L55.276,208.69L55.293,208.707L55.31,208.724L55.328,208.74L55.346,208.756L55.364,208.772L55.383,208.787L55.402,208.801L55.421,208.816L55.441,208.829L55.461,208.842L55.481,208.855L55.502,208.868L55.523,208.879L55.545,208.891L55.566,208.901L55.588,208.912L55.611,208.921L55.633,208.931L55.656,208.939L55.679,208.947L55.703,208.955L55.726,208.962L55.75,208.969L55.774,208.974L55.798,208.98L55.823,208.984L55.848,208.988L55.873,208.992L55.898,208.995L55.923,208.997L55.949,208.999L55.974,209ZM77,181L77,188C77,188.369 76.797,188.708 76.472,188.882C76.147,189.056 75.752,189.037 75.445,188.832C75.445,188.832 73,187.202 73,187.202L70.555,188.832C70.248,189.037 69.853,189.056 69.528,188.882C69.203,188.708 69,188.369 69,188L69,181L61,181L61,207L79,207L79,181L77,181ZM57,207C57,207 57,181 57,181C57,181 59,181 59,181L59,207L57,207ZM75,181L75,186.131C75,186.131 73.555,185.168 73.555,185.168C73.219,184.944 72.781,184.944 72.445,185.168L71,186.131C71,186.131 71,181 71,181L75,181Z"/>
    </g>
</svg>
