<?xml version="1.0" encoding="UTF-8" standalone="no"?>
<!DOCTYPE svg PUBLIC "-//W3C//DTD SVG 1.1//EN" "http://www.w3.org/Graphics/SVG/1.1/DTD/svg11.dtd">
<svg width="100%" height="100%" viewBox="0 0 32 32" version="1.1" xmlns="http://www.w3.org/2000/svg" xmlns:xlink="http://www.w3.org/1999/xlink" xml:space="preserve" xmlns:serif="http://www.serif.com/" style="fill-rule:evenodd;clip-rule:evenodd;stroke-linejoin:round;stroke-miterlimit:2;">
    <g transform="matrix(1,0,0,1,-178,-178)">
        <g id="Design-Here" serif:id="Design Here">
        </g>
        <path d="M205,180C205,179.448 204.552,179 204,179L184,179C183.448,179 183,179.448 183,180L183,208C183,208.552 183.448,209 184,209L204,209C204.552,209 205,208.552 205,208L205,180ZM203,181L203,207C203,207 185,207 185,207C185,207 185,181 185,181L203,181ZM188,205L200,205C200.552,205 201,204.552 201,204C201,203.448 200.552,203 200,203L188,203C187.448,203 187,203.448 187,204C187,204.552 187.448,205 188,205ZM188,200L200,200C200.552,200 201,199.552 201,199C201,198.448 200.552,198 200,198L188,198C187.448,198 187,198.448 187,199C187,199.552 187.448,200 188,200ZM188,195L200,195C200.552,195 201,194.552 201,194C201,193.448 200.552,193 200,193L188,193C187.448,193 187,193.448 187,194C187,194.552 187.448,195 188,195ZM193,184C193,183.448 192.552,183 192,183L188,183C187.448,183 187,183.448 187,184L187,189C187,189.552 187.448,190 188,190L192,190C192.552,190 193,189.552 193,189L193,184ZM196,189.5L200,189.5C200.552,189.5 201,189.052 201,188.5C201,187.948 200.552,187.5 200,187.5L196,187.5C195.448,187.5 195,187.948 195,188.5C195,189.052 195.448,189.5 196,189.5ZM191,185L191,188C191,188 189,188 189,188C189,188 189,185 189,185L191,185ZM196,185.5L200,185.5C200.552,185.5 201,185.052 201,184.5C201,183.948 200.552,183.5 200,183.5L196,183.5C195.448,183.5 195,183.948 195,184.5C195,185.052 195.448,185.5 196,185.5Z"/>
    </g>
</svg>
