<?xml version="1.0" encoding="UTF-8" standalone="no"?>
<!DOCTYPE svg PUBLIC "-//W3C//DTD SVG 1.1//EN" "http://www.w3.org/Graphics/SVG/1.1/DTD/svg11.dtd">
<svg width="100%" height="100%" viewBox="0 0 32 32" version="1.1" xmlns="http://www.w3.org/2000/svg" xmlns:xlink="http://www.w3.org/1999/xlink" xml:space="preserve" xmlns:serif="http://www.serif.com/" style="fill-rule:evenodd;clip-rule:evenodd;stroke-linejoin:round;stroke-miterlimit:2;">
    <g transform="matrix(1,0,0,1,-178,-10)">
        <g id="Design-Here" serif:id="Design Here">
        </g>
        <path d="M187,19L181.936,19C180.314,19 179,20.314 179,21.936C179,25.396 179,32.604 179,36.064C179,37.686 180.314,39 181.936,39L206.064,39C207.686,39 209,37.686 209,36.064C209,32.604 209,25.396 209,21.936C209,20.314 207.686,19 206.064,19L201,19L201,17.284C201,15.471 199.529,14 197.716,14C195.583,14 192.417,14 190.284,14C188.471,14 187,15.471 187,17.284L187,19ZM207,27L201,27L201,28C201,28.552 200.552,29 200,29C199.448,29 199,28.552 199,28L199,27L189,27L189,28C189,28.552 188.552,29 188,29C187.448,29 187,28.552 187,28L187,27L181,27L181,36.064C181,36.581 181.419,37 181.936,37C181.936,37 206.064,37 206.064,37C206.581,37 207,36.581 207,36.064L207,27ZM207,25L207,21.936C207,21.419 206.581,21 206.064,21C206.064,21 181.936,21 181.936,21C181.419,21 181,21.419 181,21.936L181,25L187,25L187,24C187,23.448 187.448,23 188,23C188.552,23 189,23.448 189,24L189,25L199,25L199,24C199,23.448 199.448,23 200,23C200.552,23 201,23.448 201,24L201,25L207,25ZM199,17.284L199,19C199,19 189,19 189,19C189,19 189,17.284 189,17.284C189,16.575 189.575,16 190.284,16C190.285,16 197.716,16 197.716,16C198.425,16 199,16.575 199,17.284Z"/>
    </g>
</svg>
